<?xml version="1.0" encoding="UTF-8" standalone="no"?>
<!-- Created with Inkscape (http://www.inkscape.org/) -->

<svg
   width="100mm"
   height="100mm"
   viewBox="0 0 100 100"
   version="1.1"
   id="svg1"
   xml:space="preserve"
   inkscape:version="1.3.2 (091e20e, 2023-11-25, custom)"
   sodipodi:docname="logo.svg"
   xmlns:inkscape="http://www.inkscape.org/namespaces/inkscape"
   xmlns:sodipodi="http://sodipodi.sourceforge.net/DTD/sodipodi-0.dtd"
   xmlns="http://www.w3.org/2000/svg"
   xmlns:svg="http://www.w3.org/2000/svg"><sodipodi:namedview
     id="namedview1"
     pagecolor="#ffffff"
     bordercolor="#000000"
     borderopacity="0.25"
     inkscape:showpageshadow="2"
     inkscape:pageopacity="0.0"
     inkscape:pagecheckerboard="0"
     inkscape:deskcolor="#d1d1d1"
     inkscape:document-units="mm"
     inkscape:zoom="1"
     inkscape:cx="-126.5"
     inkscape:cy="202.5"
     inkscape:window-width="1920"
     inkscape:window-height="991"
     inkscape:window-x="975"
     inkscape:window-y="2151"
     inkscape:window-maximized="1"
     inkscape:current-layer="layer1"
     showgrid="false" /><defs
     id="defs1" /><g
     inkscape:label="Слой 1"
     inkscape:groupmode="layer"
     id="layer1"><g
       id="g4"
       transform="matrix(1.6468263,0,0,1.6122877,-74.581607,-127.45363)"><path
         id="rect1"
         style="fill:#ffffff;fill-opacity:1;stroke:none;stroke-width:0.573141;stroke-linecap:round;stroke-linejoin:round;stroke-miterlimit:100"
         d="m 64.234956,96.911706 c 0,0 1.41874,-4.027892 2.89207,-5.472101 2.499935,-2.450523 5.359253,-4.430988 9.381122,-4.720933 8.586161,-0.618995 11.296627,11.628826 11.296627,11.628826 0.70634,-0.08214 3.596416,2.438502 4.301815,4.352532 1.00614,2.73007 0.393752,7.76908 -0.639661,8.70524 -0.806607,0.73071 3.314625,7.10939 2.546599,10.69153 -0.962837,4.49073 -2.801591,8.62899 -8.406847,10.91645 -4.650301,1.89774 -10.329944,-3.29097 -10.071531,-3.32468 0,0 -5.65211,1.78505 -8.062736,0.94341 -5.284586,-1.84505 -9.242833,-5.91833 -10.248448,-10.88093 -0.3326,-1.64133 1.857524,-5.208 1.857524,-5.208 0,0 -1.989816,-13.32686 3.105903,-17.259149 0.476127,-0.367419 2.047563,-0.372195 2.047563,-0.372195 z"
         sodipodi:nodetypes="cascasascssccc"
         inkscape:label="stone" /><path
         id="path5"
         style="fill:#aeaeae;fill-opacity:1;stroke:none;stroke-width:0.573141;stroke-linecap:round;stroke-linejoin:round;stroke-miterlimit:100"
         inkscape:label="vein1"
         d="m 61.572893,97.909357 c -0.01984,-6.01e-4 -0.03913,0.0013 -0.05891,0.001 -1.030759,1.10689 -1.694919,2.663933 -2.122868,4.382163 0.325547,0.40823 0.758103,0.79047 1.262455,1.19321 1.110761,0.88698 1.67936,7.82732 3.922241,11.50317 0.290282,0.47575 0.295066,1.85355 0.276986,3.63647 -0.0013,0.13278 -4.454851,-1.11817 -6.993888,-1.69705 -0.199835,0.46469 -0.383939,0.94348 -0.506429,1.40301 0.740843,0.43816 1.165261,1.13438 2.338358,1.46245 0.849826,0.23765 2.536167,0.98352 3.638538,1.1038 2.774414,0.14994 1.107239,1.73734 1.781286,4.79558 0.237687,1.71533 0.737006,3.27483 1.292428,4.52479 0.350379,0.14754 0.705729,0.28703 1.069185,0.41392 0.370045,0.1292 0.821942,0.19051 1.312582,0.21188 -0.145943,-1.08756 -0.35705,-2.45526 -0.454753,-4.14859 -0.02989,-0.51807 -0.314794,-4.79128 1.186491,-4.75268 1.304403,0.0336 2.999039,0.31862 3.3507,2.05569 0.186307,0.92028 2.795145,4.96791 4.879289,7.49257 1.043897,0.66793 2.364718,1.33624 3.780131,1.68671 -1.348126,-2.00249 -4.188794,-4.2185 -4.131032,-6.91932 0.02155,-1.00744 -0.314911,-1.89595 -1.128596,-2.67802 -2.787722,-2.6794 -7.399752,-4.59883 -7.386112,-4.79454 0.07195,-1.03258 -2.340682,-6.12562 -4.089156,-8.2796 -1.954206,-2.40743 -1.975062,-5.75312 -1.49965,-6.41976 0.367103,-0.51477 3.449943,-0.35142 3.967716,-0.66869 2.700186,-1.6546 4.477211,-1.3555 7.001123,0.39067 0.41496,0.28709 0.05278,1.06144 0.497644,1.42937 0.426494,0.35272 1.097695,-0.0739 1.535824,0.19895 2.062934,1.28488 2.977661,3.69951 4.028694,6.07663 0.542134,1.22615 0.30564,2.69303 0.786516,3.94447 0.720119,1.87404 1.53263,3.89736 3.080949,5.17539 1.935685,1.59777 4.696361,1.77823 7.082771,2.55592 0.699203,0.22785 1.458069,0.77088 2.181779,1.07228 0.216624,-0.70822 0.400826,-1.43064 0.558106,-2.16421 0.178078,-0.83057 0.08728,-1.81413 -0.137976,-2.84013 -0.641837,-0.80726 -1.381029,-1.5672 -2.003495,-2.36627 -0.452254,-0.58057 -0.39281,-0.9691 -1.456759,-1.65881 -0.782754,-0.50743 -2.737613,-1.08865 -3.836458,-2.02985 -2.285776,-1.95785 -3.535214,-4.874 -5.398121,-7.2378 -1.606053,-2.03788 -2.570935,-3.37586 -4.442622,-5.09168 -0.51483,-0.47196 -1.254676,-2.253058 -1.906344,-2.537312 -2.678653,-1.168416 -5.636495,0.644077 -8.464083,0.584977 -1.573744,-0.03289 -3.26604,-0.964458 -4.794539,-1.010791 z"
         sodipodi:nodetypes="cccsscccscccscscsccsssssssscsssscscssssssscc" /><path
         id="path10"
         style="fill:#6e6e6e;fill-opacity:1;stroke:none;stroke-width:0.573141;stroke-linecap:round;stroke-linejoin:round;stroke-miterlimit:100"
         inkscape:label="vein2"
         d="m 64.051294,97.281488 c -0.746738,0.009 -1.475422,0.100027 -2.179711,0.275436 -1.037309,0.936221 -1.752916,2.28634 -2.237073,3.826126 1.000058,0.18198 2.481725,-0.39532 3.549137,-0.23616 0.735989,0.10974 -1.030837,2.51037 -1.094507,3.83955 -0.07255,1.51464 0.364459,3.02831 0.823206,4.47363 0.63553,2.00229 1.849398,5.41842 2.636015,6.80682 0.07618,0.13446 1.356772,3.48272 1.65933,5.31337 0.131621,0.79639 0.213804,1.72739 0.262904,2.71114 0.107188,2.14758 0.05671,4.54655 0.01873,6.34515 0.371215,0.12709 0.822248,0.18801 1.312582,0.20826 0.206039,-2.48089 0.398269,-7.22455 -0.27957,-9.88157 -0.37109,-1.45462 -2.133485,-3.94693 -2.129585,-3.96823 0.118348,-0.63896 -0.03049,-1.16773 -0.895036,-4.45813 -0.302998,-1.15318 -0.422311,-3.11456 -0.838192,-4.78213 -0.445177,-1.78505 -1.175963,-3.25071 -1.125513,-3.57084 0.257542,-1.63413 0.653249,-2.88181 0.953431,-2.88096 0.809322,0.002 7.639128,0.0907 10.781254,2.52697 2.422687,1.87845 3.251292,5.20403 5.054471,7.68325 1.698177,2.33486 2.803466,4.31737 5.417758,6.75825 1.36292,1.27251 3.373307,3.72343 5.532478,4.91753 0.645897,0.3572 1.416371,0.88433 2.159559,1.14566 0.226678,-0.7315 0.417621,-1.47872 0.580326,-2.23759 0.202361,-0.94383 0.06128,-2.08312 -0.235645,-3.26078 -0.554827,-0.73095 -1.205112,-1.39272 -1.905826,-1.94562 -2.042393,-1.61154 -5.414731,-0.99779 -7.28121,-2.81016 -2.105255,-2.04422 -1.642472,-5.77401 -3.410128,-8.1163 -2.043573,-2.7079 -4.803894,-5.07468 -7.941634,-6.364467 -2.798056,-1.150155 -6.123681,-2.355313 -9.187553,-2.318205 z"
         sodipodi:nodetypes="sccssssssccscsssssssscscsssss" /><path
         id="rect10"
         style="fill:#b39b29;stroke-width:0.644402;stroke-linecap:round;stroke-linejoin:round;stroke-miterlimit:100"
         d="m 83.517371,97.310759 c 0.264087,0.758281 -0.132247,1.620663 0.02124,2.414393 0.153477,0.793728 0.52689,1.540218 0.888286,2.264918 0.562729,1.12844 3.466415,4.59654 3.466415,4.59654 0,0 -3.612138,-3.02027 -4.465427,-4.05034 -0.572213,-0.69075 -1.178591,-1.43188 -1.398242,-2.30848 -0.216865,-0.865495 0.238463,-1.788854 0.138788,-2.676426 -0.119022,-1.059883 -3.107018,-4.318078 -3.107018,-4.318078 0,0 2.272536,1.647032 3.585931,2.837581 0.690605,0.626011 0.733251,0.847151 0.870031,1.239892 z"
         sodipodi:nodetypes="szscssscss" /><path
         id="rect10-0"
         style="fill:#b39b29;stroke-width:0.644402;stroke-linecap:round;stroke-linejoin:round;stroke-miterlimit:100"
         d="m 85.243087,130.70102 c 0.116621,-0.0683 -2.132958,-6.52274 -4.509212,-8.75485 -1.332174,-1.25137 -4.999667,-2.16287 -4.999667,-2.16287 0,0 3.759099,-0.91471 5.186431,0.082 3.152166,2.20119 4.927117,6.91076 4.322448,10.83571 z"
         sodipodi:nodetypes="cacac" /><path
         id="rect10-4"
         style="fill:#b39b29;stroke-width:0.644402;stroke-linecap:round;stroke-linejoin:round;stroke-miterlimit:100"
         d="m 73.378174,112.09685 c -0.716271,0.34543 -1.334095,0.89723 -1.934167,1.43182 -0.934367,0.8324 -1.718769,2.86133 -1.718769,2.86133 0,0 0.123631,-2.67075 0.956733,-3.71791 2.272556,-2.85649 -2.245818,-7.29738 -2.553211,-7.0331 0.157593,-0.18894 3.234632,1.11941 3.937026,2.44391 0.417241,0.78678 -0.170562,2.41609 0.467466,2.64157 0.826576,0.29213 1.736751,-0.7692 2.575141,-0.51462 2.0116,0.61084 4.514828,4.48193 4.514828,4.48193 -0.938093,-1.04739 -5.103305,-2.96983 -6.245047,-2.59493 z"
         sodipodi:nodetypes="zscscssacz" /></g></g></svg>
